<?xml version="1.0" encoding="UTF-8"?>
<svg width="21px" height="20px" viewBox="0 0 21 20" version="1.1" xmlns="http://www.w3.org/2000/svg" xmlns:xlink="http://www.w3.org/1999/xlink">
    <!-- Generator: Sketch 43.2 (39069) - http://www.bohemiancoding.com/sketch -->
    <title>Untitled</title>
    <desc>Created with Sketch.</desc>
    <defs></defs>
    <g id="Page-1" stroke="none" stroke-width="1" fill="none" fill-rule="evenodd">
        <g id="logo-on-dark-backgrounds-02">
            <path d="M0.8,9.62 C0.799999947,13.1926559 2.70598917,16.4939262 5.79999996,18.2802542 C8.89401075,20.0665821 12.7059893,20.0665821 15.8,18.2802542 C18.8940108,16.4939262 20.8000001,13.1926559 20.8,9.62 L20.8,9.62 C20.8,10.84 19.35,12.08 17.02,12.85 C15.0056747,13.4493611 12.9112953,13.7360314 10.81,13.7 C8.66777893,13.7502194 6.53117283,13.459938 4.48,12.84 C3.53090044,12.5387734 2.64592482,12.0640738 1.87,11.44 C1.28907471,11.0021352 0.924737941,10.3353989 0.87,9.61 C0.87,8.43 2.16,7.28 4.33,6.52 C6.43514606,5.83707695 8.63694814,5.49937724 10.85,5.52 C13.029735,5.48861293 15.2004685,5.80595189 17.28,6.46 C18.1919098,6.7511361 19.0450755,7.20141804 19.8,7.79 C20.3734524,8.20329667 20.7385175,8.84581132 20.8,9.55" id="Shape" fill="#6D7171" fill-rule="nonzero"></path>
            <path d="M19.76,7.82 C19.0050755,7.23141804 18.1519098,6.7811361 17.24,6.49 C15.1604685,5.83595189 12.989735,5.51861293 10.81,5.55 C8.59694814,5.52937724 6.39514606,5.86707695 4.29,6.55 C2.12,7.31 0.83,8.46 0.83,9.64 C0.884737941,10.3653989 1.24907471,11.0321352 1.83,11.47 C2.60592482,12.0940738 3.49090044,12.5687734 4.44,12.87 C6.49117283,13.489938 8.62777893,13.7802194 10.77,13.73 C12.8805737,13.7518788 14.9819102,13.448315 17,12.83 C19.33,12.06 20.77,10.83 20.78,9.6 L20.78,9.6 C20.7194078,8.88519439 20.3460725,8.2336877 19.76,7.82 L19.76,7.82 Z M16.76,12.03 C14.8329839,12.6017617 12.8297468,12.8749304 10.82,12.84 C8.7615996,12.8844024 6.70925305,12.6008546 4.74,12 C3.89364945,11.7335587 3.10374982,11.313183 2.41,10.76 C2.00635002,10.4839671 1.73488281,10.0532391 1.66,9.57 C1.66,8.69 3.11,7.79 4.55,7.29 C6.56852715,6.65743963 8.67488767,6.35026206 10.79,6.38 C12.8781907,6.34956589 14.9578037,6.65340545 16.95,7.28 C17.763448,7.53821697 18.5250759,7.93764846 19.2,8.46 C19.585768,8.71651071 19.8467965,9.12255495 19.92,9.58 C19.93,10.25 18.93,11.29 16.74,12 L16.76,12.03 Z" id="Shape" fill="#4DC8ED" fill-rule="nonzero"></path>
            <path d="M19.21,8.47 C18.547167,7.95174353 17.7993997,7.55248314 17,7.29 C15.0078037,6.66340545 12.9281907,6.35956589 10.84,6.39 C8.72488767,6.36026206 6.61852715,6.66743963 4.6,7.3 C3.16,7.8 1.71,8.7 1.71,9.58 C1.78488281,10.0632391 2.05635002,10.4939671 2.46,10.77 C3.13950413,11.3142945 3.91197092,11.73102 4.74,12 C6.70449028,12.5886043 8.74988459,12.8619986 10.8,12.81 C12.8097468,12.8449304 14.8129839,12.5717617 16.74,12 C18.93,11.27 19.93,10.23 19.93,9.57 C19.8516111,9.11987106 19.5911563,8.7219539 19.21,8.47 Z" id="Shape" fill="#464949" fill-rule="nonzero"></path>
            <path d="M7.28,11.65 C7.08,11.31 6.91,10.96 6.73,10.65 C6.48,11.25 6.25,11.84 6.07,12.41 C6.67800019,12.5379073 7.29213237,12.6346999 7.91,12.7 C7.7,12.33 7.48,12 7.28,11.65 Z" id="Shape"></path>
            <path d="M5.85,13.2 C5.8,13.42 5.73,13.65 5.69,13.86 C5.41,15.36 5.46,17.07 6.22,17.51 C6.79,17.84 8.22,17.51 9.86,16.06 C9.98,15.95 10.11,15.81 10.23,15.69 C9.61783718,15.0245684 9.04995301,14.3197239 8.53,13.58 C7.62917202,13.5134265 6.73382708,13.3864746 5.85,13.2 Z" id="Shape"></path>
            <path d="M5.25,7.09 L4.56,7.31 C3.12,7.81 1.67,8.71 1.67,9.59 C1.74488281,10.0732391 2.01635002,10.5039671 2.42,10.78 C3.11229378,11.3250055 3.89861921,11.7385042 4.74,12 L5.24,12.14 C5.51713815,11.2722724 5.85119626,10.4237648 6.24,9.6 C5.85550249,8.78586726 5.52479329,7.94740253 5.25,7.09 L5.25,7.09 Z" id="Shape"></path>
            <path d="M14.32,11.64 C14.12,11.99 13.92,12.32 13.71,12.64 C14.3349352,12.5688405 14.9557664,12.4653686 15.57,12.33 C15.3735586,11.7353682 15.1465907,11.1512596 14.89,10.58 C14.71,10.94 14.53,11.29 14.32,11.64 Z" id="Shape"></path>
            <path d="M11.43,15.7 L11.93,16.16 C13.09,17.16 14.59,17.96 15.36,17.52 C15.93,17.19 16.36,15.83 15.92,13.65 C15.92,13.5 15.83,13.32 15.79,13.17 C14.9066593,13.3633459 14.0113,13.4969817 13.11,13.57 C12.5988532,14.3172047 12.0375623,15.0288413 11.43,15.7 Z" id="Shape"></path>
            <path d="M16.4,12.11 L16.74,12.02 C18.93,11.29 19.93,10.25 19.93,9.59 C19.8567965,9.13255495 19.595768,8.72651071 19.21,8.47 C18.547167,7.95174353 17.7993997,7.55248314 17,7.29 C16.81,7.23 16.6,7.18 16.4,7.12 C16.1209887,7.96429686 15.7869393,8.78939869 15.4,9.59 C15.7895578,10.406585 16.1236479,11.2484921 16.4,12.11 Z" id="Shape"></path>
            <path d="M10.8,13.68 L9.63,13.68 C10.02,14.2 10.43,14.68 10.84,15.13 C11.2521472,14.6537062 11.6393332,14.1563725 12,13.64 C11.6,13.66 11.21,13.68 10.8,13.68 Z" id="Shape"></path>
            <path d="M10.2,3.55 L9.91,3.26 C9.24364339,2.63808321 8.47150542,2.14025742 7.63,1.79 C7.18757057,1.56801979 6.67211669,1.54261009 6.21,1.72 C5.85129563,2.0112894 5.63023755,2.43890995 5.6,2.9 C5.48718957,3.7465554 5.52442549,4.60636678 5.71,5.44 C5.71,5.64 5.81,5.85 5.87,6.06 C6.74378589,5.86967434 7.62896679,5.73606213 8.52,5.66 C9.03330609,4.92072248 9.59450863,4.21587881 10.2,3.55 L10.2,3.55 Z" id="Shape"></path>
            <path d="M9,6.46 C8.66,6.95 8.34,7.46 8,8 C7.66,8.54 7.41,9.07 7.16,9.61 C7.42,10.15 7.7,10.68 8.01,11.22 L8.01,11.22 C8.32,11.75 8.65,12.27 9.01,12.77 C9.59,12.77 10.19,12.83 10.82,12.83 C11.45,12.83 12.06,12.83 12.65,12.76 C12.97,12.2733333 13.3033333,11.76 13.65,11.22 C13.96,10.68 14.24,10.14 14.5,9.6 C14.24,9.08 13.96,8.55 13.64,8 C13.32,7.45 13.01,7 12.64,6.47 C12.05,6.47 11.44,6.4 10.82,6.4 C10.2,6.4 9.58,6.42 9,6.46 Z M12.6,9.59 C12.6,10.5730669 11.8030669,11.37 10.82,11.37 C9.83693315,11.37 9.04,10.5730669 9.04,9.59 C9.04,8.60693315 9.83693315,7.81 10.82,7.81 C11.7952475,7.82095853 12.5800616,8.61469096 12.58,9.59 L12.6,9.59 Z" id="Shape"></path>
            <path d="M14.32,7.57 C14.52,7.92 14.7,8.27 14.88,8.57 C15.13,7.98 15.36,7.4 15.53,6.85 C14.96,6.72 14.34,6.62 13.7,6.54 C13.91,6.91 14.12,7.23 14.32,7.57 Z" id="Shape"></path>
            <path d="M10.8,5.54 L11.98,5.54 C11.614114,5.04410252 11.2236251,4.56683821 10.81,4.11 C10.41,4.54 10.02,5.03 9.63,5.54 C10,5.56 10.4,5.54 10.8,5.54 Z" id="Shape"></path>
            <path d="M15.75,6.07 C15.75,5.94 15.83,5.8 15.85,5.67 C16.0563774,4.79571022 16.107153,3.89190385 16,3 C15.9723188,2.50389279 15.7362245,2.04260081 15.35,1.73 C14.9174904,1.5450984 14.4268424,1.55236725 14,1.75 C13.2089686,2.07344135 12.4811608,2.53382209 11.85,3.11 C11.7,3.24 11.55,3.4 11.4,3.55 C12.0022128,4.21253822 12.5600893,4.9140596 13.07,5.65 C13.9715945,5.73093595 14.8668704,5.87124037 15.75,6.07 L15.75,6.07 Z" id="Shape"></path>
            <path d="M7.27,7.58 C7.47,7.23 7.68,6.91 7.9,6.58 C7.26,6.66 6.65,6.76 6.08,6.89 C6.25,7.45 6.48,8.03 6.72,8.62 C6.9,8.27 7.08,7.92 7.27,7.58 Z" id="Shape"></path>
            <circle id="Oval" fill="#4DC8ED" fill-rule="nonzero" cx="10.8" cy="9.59" r="1.78"></circle>
            <path d="M8,8 C8.31,7.47 8.64,7 9,6.46 L7.92,6.57 C7.71,6.9 7.49,7.23 7.29,7.57 C7.09,7.91 6.92,8.26 6.74,8.57 C6.88,8.9 7.02,9.23 7.18,9.57 C7.43,9.07 7.71,8.53 8,8 Z" id="Shape" fill="#4DC8ED" fill-rule="nonzero"></path>
            <path d="M9.63,5.58 C10.02,5.07 10.41,4.58 10.81,4.15 C10.61,3.93 10.41,3.74 10.2,3.55 C9.59485681,4.21265999 9.03366125,4.91415445 8.52,5.65 L9.63,5.58 Z" id="Shape" fill="#4DC8ED" fill-rule="nonzero"></path>
            <path d="M13.59,11.22 C13.2766667,11.7666667 12.9433333,12.28 12.59,12.76 C12.96,12.76 13.32,12.7 13.67,12.65 C13.88,12.32 14.08,11.99 14.28,11.65 C14.48,11.31 14.66,10.94 14.85,10.59 C14.71,10.26 14.57,9.94 14.4,9.59 C14.18,10.13 13.9,10.67 13.59,11.22 Z" id="Shape" fill="#4DC8ED" fill-rule="nonzero"></path>
            <path d="M11.87,3.12 C12.4943778,2.54223165 13.2153144,2.07853069 14,1.75 C14.4155433,1.54530797 14.8977137,1.52355593 15.33,1.69 C15.7339067,2.00788341 15.9786688,2.48644818 16,3 C16.1152019,3.90445833 16.0677895,4.82222757 15.86,5.71 C15.86,5.84 15.79,5.98 15.76,6.11 C16.05,6.18 16.31,6.26 16.58,6.34 C16.58,6.19 16.67,6.03 16.7,5.89 C17.2,3.49 16.84,1.61 15.78,1 C15.1304158,0.696277055 14.3795842,0.696277055 13.73,1 C12.8432602,1.36047249 12.027337,1.87507963 11.32,2.52 C11.15,2.66 10.99,2.84 10.82,3 C11.02,3.19 11.22,3.38 11.43,3.6 C11.57,3.41 11.72,3.25 11.87,3.12 Z" id="Shape" fill="#4DC8ED" fill-rule="nonzero"></path>
            <path d="M6.23,9.61 C5.84119626,10.4337648 5.50713815,11.2822724 5.23,12.15 C5.5,12.23 5.76,12.31 6.06,12.37 C6.24,11.8 6.46,11.21 6.72,10.61 C6.55,10.28 6.39,9.95 6.23,9.61 Z" id="Shape" fill="#4DC8ED" fill-rule="nonzero"></path>
            <path d="M14.88,8.61 C15.05,8.94 15.22,9.27 15.37,9.61 C15.7569393,8.80939869 16.0909887,7.98429686 16.37,7.14 C16.1,7.06 15.84,6.98 15.55,6.91 C15.36,7.44 15.14,8 14.88,8.61 Z" id="Shape" fill="#4DC8ED" fill-rule="nonzero"></path>
            <path d="M9.63,5.58 L8.52,5.65 C8.31,5.95 8.1,6.25 7.9,6.57 L9,6.46 C9.19,6.16 9.41,5.87 9.63,5.58 Z" id="Shape" fill="#4DC8ED" fill-rule="nonzero"></path>
            <path d="M15.53,6.89 C15.82,6.96 16.08,7.04 16.35,7.12 C16.44,6.83 16.5,6.57 16.57,6.3 C16.3,6.22 16.04,6.14 15.75,6.07 C15.68,6.34 15.62,6.61 15.53,6.89 Z" id="Shape" fill="#4DC8ED" fill-rule="nonzero"></path>
            <path d="M14.89,10.58 C15.1465907,11.1512596 15.3735586,11.7353682 15.57,12.33 C15.86,12.26 16.13,12.19 16.39,12.11 C16.1136479,11.2484921 15.7795578,10.406585 15.39,9.59 C15.22,9.92 15.06,10.25 14.89,10.58 Z" id="Shape" fill="#4DC8ED" fill-rule="nonzero"></path>
            <path d="M5.71,5.44 C5.52442549,4.60636678 5.48718957,3.7465554 5.6,2.9 C5.62750491,2.43535495 5.84882309,2.0036031 6.21,1.71 C6.67211669,1.53261009 7.18757057,1.55801979 7.63,1.78 C8.47150542,2.13025742 9.24364339,2.62808321 9.91,3.25 L10.2,3.54 C10.4,3.32 10.6,3.14 10.81,2.94 C10.7,2.83 10.59,2.71 10.48,2.61 C8.64,1 6.84,0.36 5.78,1 C5.20044466,1.4167984 4.83448002,2.06821546 4.78,2.78 C4.64801931,3.7290389 4.68526177,4.69395727 4.89,5.63 C4.89,5.85 5,6.08 5.06,6.3 C5.33,6.22 5.59,6.14 5.88,6.08 C5.81,5.86 5.75,5.64 5.71,5.44 Z" id="Shape" fill="#4DC8ED" fill-rule="nonzero"></path>
            <path d="M6.72,8.61 C6.47,8.02 6.25,7.44 6.08,6.88 L5.25,7.09 C5.5276356,7.95104743 5.86169222,8.7928701 6.25,9.61 C6.39,9.28 6.55,8.95 6.72,8.61 Z" id="Shape" fill="#4DC8ED" fill-rule="nonzero"></path>
            <path d="M8,11.22 L8,11.22 C7.69,10.69 7.41,10.15 7.15,9.61 C6.99,9.95 6.85,10.28 6.71,10.61 C6.89,10.96 7.06,11.3 7.26,11.61 C7.46,11.92 7.68,12.29 7.9,12.61 C8.25,12.61 8.6,12.69 8.98,12.71 C8.65,12.27 8.32,11.75 8,11.22 Z" id="Shape" fill="#4DC8ED" fill-rule="nonzero"></path>
            <path d="M13.09,5.66 C12.5800893,4.9240596 12.0222128,4.22253822 11.42,3.56 C11.22,3.75 11.01,3.94 10.81,4.16 C11.2301842,4.6131171 11.6273509,5.08704715 12,5.58 L13.09,5.66 Z" id="Shape" fill="#4DC8ED" fill-rule="nonzero"></path>
            <path d="M13.71,6.58 C13.35,6.58 12.99,6.49 12.62,6.46 C12.95,6.95 13.28,7.46 13.62,7.99 C13.96,8.52 14.22,9.07 14.48,9.59 C14.64,9.26 14.79,8.93 14.92,8.59 C14.74,8.24 14.56,7.9 14.36,7.59 C14.16,7.28 13.91,6.91 13.71,6.58 Z" id="Shape" fill="#4DC8ED" fill-rule="nonzero"></path>
            <path d="M13.71,6.58 C13.51,6.26 13.3,5.96 13.09,5.66 L12,5.58 C12.21,5.86 12.43,6.16 12.64,6.46 C13,6.49 13.35,6.54 13.71,6.58 Z" id="Shape" fill="#4DC8ED" fill-rule="nonzero"></path>
            <path d="M6.08,6.88 C5.99,6.6 5.93,6.33 5.86,6.06 C5.57,6.13 5.31,6.2 5.04,6.28 C5.11,6.55 5.16,6.81 5.25,7.09 L6.08,6.88 Z" id="Shape" fill="#4DC8ED" fill-rule="nonzero"></path>
            <path d="M10.81,4.15 C11.01,3.93 11.21,3.75 11.42,3.55 C11.22,3.33 11.02,3.14 10.81,2.95 C10.61,3.15 10.4,3.33 10.2,3.55 C10.4,3.74 10.61,3.93 10.81,4.15 Z" id="Shape" fill="#4DC8ED" fill-rule="nonzero"></path>
            <path d="M6.72,8.61 C6.55,8.94 6.38,9.27 6.23,9.61 C6.38,9.95 6.55,10.28 6.72,10.61 C6.86,10.28 7,9.94 7.16,9.61 C7,9.28 6.86,8.95 6.72,8.61 Z" id="Shape" fill="#4DC8ED" fill-rule="nonzero"></path>
            <path d="M14.89,10.58 C15.06,10.25 15.22,9.92 15.37,9.58 C15.22,9.26 15.05,8.93 14.88,8.58 C14.74,8.9 14.6,9.23 14.44,9.58 C14.61,9.93 14.75,10.26 14.89,10.58 Z" id="Shape" fill="#4DC8ED" fill-rule="nonzero"></path>
            <path d="M9.86,16.06 C8.18,17.53 6.8,17.84 6.22,17.51 C5.46,17.07 5.4,15.36 5.69,13.86 C5.69,13.65 5.8,13.42 5.85,13.2 C5.56,13.14 5.3,13.05 5.03,12.98 C4.97,13.22 4.89,13.47 4.85,13.71 C4.42,15.97 4.78,17.71 5.8,18.25 C6.10555741,18.4179104 6.45178818,18.4975435 6.8,18.48 C7.19631512,18.4726918 7.58852937,18.3983064 7.96,18.26 C8.8856624,17.8991416 9.7366306,17.3702529 10.47,16.7 L10.9,16.3 C10.69,16.1 10.49,15.91 10.28,15.69 C10.11,15.81 10,16 9.86,16.06 Z" id="Shape" fill="#A9B4B8" fill-rule="nonzero"></path>
            <path d="M12,13.64 C11.6349703,14.1429601 11.2444604,14.6269253 10.83,15.09 C11.03,15.31 11.23,15.51 11.43,15.7 C12.0379255,15.025627 12.5992239,14.3106398 13.11,13.56 L12,13.64 Z" id="Shape" fill="#A9B4B8" fill-rule="nonzero"></path>
            <path d="M8.53,13.58 C9.04995301,14.3197239 9.61783718,15.0245684 10.23,15.69 C10.43,15.5 10.63,15.31 10.83,15.09 C10.42,14.65 10.02,14.16 9.62,13.64 L8.53,13.58 Z" id="Shape" fill="#A9B4B8" fill-rule="nonzero"></path>
            <path d="M15.92,13.65 C16.35,15.84 15.92,17.19 15.36,17.52 C14.6,17.96 13.09,17.16 11.93,16.16 L11.43,15.7 C11.24,15.91 11.04,16.11 10.85,16.3 C11.03,16.47 11.2,16.66 11.38,16.81 C12.3140749,17.7453474 13.5369557,18.3374049 14.85,18.49 C15.1781905,18.4980948 15.502624,18.4187121 15.79,18.26 C16.3948447,17.8382461 16.7855949,17.1736057 16.86,16.44 C17.014811,15.4425603 16.9808896,14.4249164 16.76,13.44 C16.76,13.27 16.66,13.08 16.62,12.9 C16.35,12.98 16.09,13.06 15.8,13.12 C15.83,13.32 15.89,13.49 15.92,13.65 Z" id="Shape" fill="#A9B4B8" fill-rule="nonzero"></path>
            <path d="M10.83,15.09 C10.63,15.31 10.43,15.5 10.23,15.69 C10.44,15.91 10.64,16.1 10.85,16.3 C11.04,16.11 11.24,15.91 11.43,15.7 C11.23,15.51 11,15.31 10.83,15.09 Z" id="Shape" fill="#A9B4B8" fill-rule="nonzero"></path>
            <path d="M7.91,12.66 C7.29213237,12.5946999 6.67800019,12.4979073 6.07,12.37 C5.98,12.66 5.92,12.92 5.85,13.2 C6.73382708,13.3864746 7.62917202,13.5134265 8.53,13.58 C8.32,13.28 8.12,13 7.91,12.66 Z" id="Shape" fill="#4ABDD8" fill-rule="nonzero"></path>
            <path d="M13.71,6.58 C14.35,6.66 14.96,6.76 15.54,6.89 C15.63,6.6 15.69,6.34 15.76,6.06 C14.8832239,5.86546746 13.9946595,5.72850828 13.1,5.65 C13.3,6 13.5,6.26 13.71,6.58 Z" id="Shape" fill="#4ABDD8" fill-rule="nonzero"></path>
            <path d="M4.74,12 C3.89364945,11.7335587 3.10374982,11.313183 2.41,10.76 C2.00635002,10.4839671 1.73488281,10.0532391 1.66,9.57 C1.66,8.69 3.11,7.79 4.55,7.29 L5.24,7.07 C5.15,6.79 5.1,6.53 5.03,6.26 C4.77,6.33 4.51,6.4 4.27,6.48 C2.1,7.24 0.81,8.39 0.81,9.57 C0.864737941,10.2953989 1.22907471,10.9621352 1.81,11.4 C2.58592482,12.0240738 3.47090044,12.4987734 4.42,12.8 C4.59,12.86 4.8,12.9 4.98,12.96 C5.05,12.69 5.11,12.42 5.19,12.14 L4.74,12 Z" id="Shape" fill="#4ABDD8" fill-rule="nonzero"></path>
            <path d="M19.76,7.82 C19.0050755,7.23141804 18.1519098,6.7811361 17.24,6.49 C17.03,6.42 16.8,6.36 16.58,6.3 C16.51,6.57 16.45,6.84 16.36,7.12 C16.56,7.18 16.77,7.23 16.96,7.29 C17.773448,7.54821697 18.5350759,7.94764846 19.21,8.47 C19.595768,8.72651071 19.8567965,9.13255495 19.93,9.59 C19.93,10.25 18.93,11.29 16.74,12.02 L16.4,12.11 C16.49,12.4 16.55,12.66 16.62,12.93 L17.01,12.82 C19.34,12.05 20.79,10.82 20.79,9.58 C20.7226754,8.87025488 20.3458199,8.22630751 19.76,7.82 L19.76,7.82 Z" id="Shape" fill="#4ABDD8" fill-rule="nonzero"></path>
            <path d="M8.52,5.66 C7.62896679,5.73606213 6.74378589,5.86967434 5.87,6.06 C5.94,6.33 6,6.6 6.09,6.88 C6.66,6.75 7.27,6.65 7.91,6.57 C8.1,6.26 8.31,6 8.52,5.66 Z" id="Shape" fill="#4ABDD8" fill-rule="nonzero"></path>
            <path d="M13.11,13.57 C14.0113,13.4969817 14.9066593,13.3633459 15.79,13.17 C15.72,12.9 15.66,12.63 15.57,12.35 C14.9557664,12.4853686 14.3349352,12.5888405 13.71,12.66 C13.5166667,12.9666667 13.3166667,13.27 13.11,13.57 Z" id="Shape" fill="#4ABDD8" fill-rule="nonzero"></path>
            <path d="M10.8,12.83 C10.17,12.83 9.57,12.83 8.99,12.77 C9.2,13.07 9.41,13.36 9.62,13.65 L10.79,13.65 L11.99,13.65 C12.2,13.36 12.41,13.08 12.62,12.77 C12,12.8 11.43,12.83 10.8,12.83 Z" id="Shape" fill="#4ABDD8" fill-rule="nonzero"></path>
            <path d="M10.8,6.39 C11.42,6.39 12.02,6.39 12.62,6.46 C12.41,6.15 12.2,5.86 11.98,5.58 L10.8,5.58 L9.63,5.58 C9.41,5.87 9.2,6.16 8.99,6.46 C9.58,6.42 10.19,6.39 10.8,6.39 Z" id="Shape" fill="#4ABDD8" fill-rule="nonzero"></path>
            <path d="M12,13.64 L13.11,13.56 C13.31,13.2666667 13.51,12.96 13.71,12.64 C13.36,12.64 13,12.72 12.63,12.75 C12.42,13.07 12.21,13.35 12,13.64 Z" id="Shape" fill="#4ABDD8" fill-rule="nonzero"></path>
            <path d="M6.07,12.38 C5.77,12.32 5.51,12.24 5.24,12.16 C5.15,12.44 5.09,12.71 5.03,12.98 C5.3,13.06 5.56,13.14 5.85,13.2 C5.92,12.93 6,12.66 6.07,12.38 Z" id="Shape" fill="#4ABDD8" fill-rule="nonzero"></path>
            <path d="M15.57,12.34 C15.66,12.63 15.72,12.89 15.79,13.16 C16.08,13.09 16.35,13.01 16.61,12.94 C16.54,12.67 16.48,12.4 16.39,12.12 C16.13,12.19 15.86,12.27 15.57,12.34 Z" id="Shape" fill="#4ABDD8" fill-rule="nonzero"></path>
            <path d="M7.91,12.66 C8.11,12.97 8.32,13.28 8.53,13.58 L9.63,13.64 C9.42,13.36 9.2,13.07 9,12.76 C8.62,12.74 8.27,12.7 7.91,12.66 Z" id="Shape" fill="#4ABDD8" fill-rule="nonzero"></path>
        </g>
    </g>
</svg>